<mxfile host="app.diagrams.net" modified="2023-08-10T05:50:50.855Z" agent="Mozilla/5.0 (Windows NT 10.0; Win64; x64) AppleWebKit/537.36 (KHTML, like Gecko) Chrome/115.0.0.0 Safari/537.36" etag="QPX3VpnoO-Ymuzjgweao" version="21.6.6" type="github">
  <diagram name="第 1 页" id="w0i-Dou88viqHWnvbx1A">
    <mxGraphModel dx="1434" dy="758" grid="1" gridSize="10" guides="1" tooltips="1" connect="1" arrows="1" fold="1" page="1" pageScale="1" pageWidth="827" pageHeight="1169" math="0" shadow="0">
      <root>
        <mxCell id="0" />
        <mxCell id="1" parent="0" />
        <mxCell id="fXfpeIQAyXFBqhq6O8S7-22" value="" style="edgeStyle=orthogonalEdgeStyle;rounded=0;orthogonalLoop=1;jettySize=auto;html=1;" edge="1" parent="1" source="fXfpeIQAyXFBqhq6O8S7-20" target="fXfpeIQAyXFBqhq6O8S7-21">
          <mxGeometry relative="1" as="geometry" />
        </mxCell>
        <mxCell id="fXfpeIQAyXFBqhq6O8S7-20" value="" style="shape=cube;whiteSpace=wrap;html=1;boundedLbl=1;backgroundOutline=1;darkOpacity=0.05;darkOpacity2=0.1;size=10;flipV=0;flipH=0;" vertex="1" parent="1">
          <mxGeometry x="90" y="150" width="200" height="200" as="geometry" />
        </mxCell>
        <mxCell id="fXfpeIQAyXFBqhq6O8S7-24" value="" style="edgeStyle=orthogonalEdgeStyle;rounded=0;orthogonalLoop=1;jettySize=auto;html=1;" edge="1" parent="1" source="fXfpeIQAyXFBqhq6O8S7-21" target="fXfpeIQAyXFBqhq6O8S7-23">
          <mxGeometry relative="1" as="geometry" />
        </mxCell>
        <mxCell id="fXfpeIQAyXFBqhq6O8S7-21" value="" style="shape=cube;whiteSpace=wrap;html=1;boundedLbl=1;backgroundOutline=1;darkOpacity=0.05;darkOpacity2=0.1;size=10;flipV=0;flipH=0;aspect=fixed;" vertex="1" parent="1">
          <mxGeometry x="319" y="200" width="100" height="100" as="geometry" />
        </mxCell>
        <mxCell id="fXfpeIQAyXFBqhq6O8S7-26" value="" style="edgeStyle=orthogonalEdgeStyle;rounded=0;orthogonalLoop=1;jettySize=auto;html=1;" edge="1" parent="1" source="fXfpeIQAyXFBqhq6O8S7-23" target="fXfpeIQAyXFBqhq6O8S7-25">
          <mxGeometry relative="1" as="geometry" />
        </mxCell>
        <mxCell id="fXfpeIQAyXFBqhq6O8S7-23" value="" style="shape=cube;whiteSpace=wrap;html=1;boundedLbl=1;backgroundOutline=1;darkOpacity=0.05;darkOpacity2=0.1;size=10;flipV=0;flipH=0;" vertex="1" parent="1">
          <mxGeometry x="440" y="218" width="64" height="64" as="geometry" />
        </mxCell>
        <mxCell id="fXfpeIQAyXFBqhq6O8S7-25" value="" style="shape=cube;whiteSpace=wrap;html=1;boundedLbl=1;backgroundOutline=1;darkOpacity=0.05;darkOpacity2=0.1;size=10;flipV=0;flipH=1;aspect=fixed;direction=north;container=0;" vertex="1" parent="1">
          <mxGeometry x="520" y="230" width="50" height="50" as="geometry" />
        </mxCell>
      </root>
    </mxGraphModel>
  </diagram>
</mxfile>
